<svg xmlns="http://www.w3.org/2000/svg" viewBox="-30 -30 60 60">
  <rect x="-30" y="-30" width="60" height="60" fill="#0a1211"/>
  <g fill="none" stroke="#5cb39f" stroke-width="3" stroke-linecap="round" stroke-linejoin="round">
    <path d="M-18,-25 L18,-25 M-18,25 L18,25 M-14,-25 L-14,-20 C-14,-5 -2,0 -2,0 C-2,0 -14,5 -14,20 L-14,25 M14,-25 L14,-20 C14,-5 2,0 2,0 C2,0 14,5 14,20 L14,25"/>
  </g>
  <path d="M-10,-20 L10,-20 C8,-10 0,-4 0,-4 C0,-4 -8,-10 -10,-20 Z" fill="#5cb39f" opacity="0.3"/>
  <path d="M-10,20 L10,20 C8,10 0,4 0,4 C0,4 -8,10 -10,20 Z" fill="#5cb39f"/>
</svg>
